<svg xmlns="http://www.w3.org/2000/svg" xmlns:xlink="http://www.w3.org/1999/xlink" viewBox="0 0 585.10001 281.12963"><defs><style>.cls-1{isolation:isolate;}.cls-2{fill:#cdcdcd;mix-blend-mode:multiply;}.cls-3{fill:#eb6907;}.cls-4{fill:#371913;}.cls-5{fill:#f08d92;}.cls-6{fill:#f7bdb6;}.cls-7{fill:#5b344d;}.cls-8{fill:#ee7e88;}.cls-9{fill:#e65e70;}.cls-10{fill:url(#Degradado_sin_nombre_5);}.cls-11{fill:url(#Degradado_sin_nombre_5-2);}.cls-12{fill:#2b111a;}.cls-13{fill:#b77100;}.cls-14{fill:#e79b00;}</style><linearGradient id="Degradado_sin_nombre_5" x1="205.2829" y1="89.91426" x2="241.13133" y2="129.19499" gradientTransform="matrix(0.7676, 0.62299, -0.61134, 0.78223, 120.42799, -150.62883)" gradientUnits="userSpaceOnUse"><stop offset="0" stop-color="#fff"/><stop offset="0.5397" stop-color="#f7bdb6"/></linearGradient><linearGradient id="Degradado_sin_nombre_5-2" x1="1234.35478" y1="-334.29731" x2="1206.88749" y2="-302.54434" gradientTransform="matrix(0.732, -0.55673, 0.49059, 0.83069, -377.57598, 1043.95868)" xlink:href="#Degradado_sin_nombre_5"/></defs><g class="cls-1"><g id="Capa_1" data-name="Capa 1"><path class="cls-2" d="M170.91913,256.17162s-2.82343-.20173-3.33717-.65807c-.45988-.40849.8234-.76847.8234-.76847s5.81785-2.14978,1.6107-6.16827c-7.3996-7.06777-43.141-10.49844-93.39035-10.49844-17.88428,0-56.30864.26487-56.30864.26487-2.97467,0-5.46353.13206-6.69653.65782-1.44491.71652-.22523,1.49021,2.20027,2.63415,0,0,20.34109,10.04679,32.44137,15.73329,11.8299,5.55944,29.48206,13.31734,29.48206,13.31734a17.44225,17.44225,0,0,0,4.31524,1.42823,35.60125,35.60125,0,0,0,6.34165.41727s36.35174.48894,50.586.48894c32.789,0,63.05473-1.94473,55.90175-9.33333C189.532,258.1536,170.91913,256.17162,170.91913,256.17162Zm-77.12958-6.74843a31.69974,31.69974,0,0,1,5.22642-.2809s13.36519-.1127,17.49413,2.64784c4.03353,2.69676-9.18989,2.54132-9.18989,2.54132a37.36044,37.36044,0,0,1-5.133-.25992,9.93112,9.93112,0,0,1-3.76947-1.36965l-3.667-2.222S93.1809,249.647,93.78955,249.42319Zm31.2254,15.31875s-3.27678,0-5.18633-.21813a8.49524,8.49524,0,0,1-3.9429-1.23744l-2.91932-1.76893s-1.78842-.97531-1.178-1.25688a26.64962,26.64962,0,0,1,5.031-.33021s16.05672-.33234,20.1826,2.50082C140.62041,264.91585,125.015,264.74194,125.015,264.74194Zm230.19767-26.92985c-.42657,0-48.85068.13306-51.61037.795-1.68491.39395-2.08442,1.11047-2.0654,1.69165,0,0-.58878,11.38324-.34571,17.41435.23,5.70709,1.34777,13.2069,1.34777,13.2069.019.581.5154.92658,2.1363,1.23213a51.38518,51.38518,0,0,0,5.95339.30358s12.81484.30185,36.22423.30185c39.44444,0,74.64192-3.25826,87.17353-15.09357C447.99134,244.475,419.84838,237.81209,355.21262,237.81209Zm5.25478,24.34647a25.01116,25.01116,0,0,1-3.60557-.22817c-1.27784-.32093-1.04292-.87551-.82571-1.38826l2.08705-4.92687c.325-.7672.35558-1.28381,1.64206-1.648a21.84085,21.84085,0,0,1,3.75673-.36634s19.57617-.42164,16.78955,4.11219C377.41165,262.43117,360.4674,262.15856,360.4674,262.15856Zm-69.04849.8143H259.8868a51.65636,51.65636,0,0,1-5.51084-.17991c-1.37261-.31647-2.12889-1.97058-1.00523-2.25082a47.63525,47.63525,0,0,1,5.46979-.18757h26.514c2.14934,0,5.183-.094,6.38079-.56629,1.37768-.572.49092-3.61665-.85723-4.02078a24.56617,24.56617,0,0,0-6.41651-.50893H256.61729a42.973,42.973,0,0,1-5.32224-.20476c-1.686-.41187-2.452-2.51186-1.44919-2.833a47.50873,47.50873,0,0,1,5.637-.26884h30.126c2.30334,0,5.55842-.05391,6.84394-.59583,1.29777-.54625.44112-5.26867.394-5.74265-.07127-.71682-.38212-5.96076-2.57681-6.74352-1.997-.72531-7.51948-.65906-7.51948-.65906s-28.01123-.39884-47.2104-.39884c-21.11869,0-53.559.465-53.559.465-2.55092,0-4.34294.13219-5.22022.7894-.72066.58624.36374,1.74444.36374,1.74444s5.82026,7.48127,13.838,15.96221c5.26322,5.56728,14.625,14.26355,14.625,14.26355a3.281,3.281,0,0,0,1.97579,1.07736,24.99961,24.99961,0,0,0,4.72393.41727s24.9175.26384,40.78562.26384c14.42583,0,39.08023-.22607,39.08023-.22607s4.34051.03775,5.58927-.417c1.5761-.57415,1.40449-3.29649,1.366-3.90664-.02849-.452-.09969-4.33721-1.6999-4.8253A24.19817,24.19817,0,0,0,291.41891,262.97286Zm306.42191-21.59022c2.21618-1.53557-10.24123-2.44708-19.75582-3.10553-11.49421-.79878-27.30558-1.674-30.24889-1.33611-4.0129.47038-10.73639,2.71175-17.14824,4.69421-7.13291,2.23227-16.55718,5.098-20.75332,5.098-3.99517,0-4.00357-2.68305-4.60751-4.78363-.43327-1.71514.0638-4.13752-1.60254-4.47128-2.466-.53733-20.48046.13369-34.151.86491-13.529.72327-31.31138,1.63307-34.76172,2.84936-3.44767,1.25743,4.88222,7.78057,10.16109,11.8809,3.98963,3.09812,10.324,6.61986,10.38911,7.14.06348.5156-4.192,3.87152-7.20064,6.24416-2.93811,2.317-6.60621,5.08184-5.76984,5.69448.87595.56779,14.13592.60543,23.75656.60543,9.94126,0,24.18174-.0753,26.718-.60543,2.33117-.49727,6.69189-3.337,10.77561-5.65225,3.79427-2.15119,9.76777-5.53791,10.8927-5.77079,4.45082-.98827,21.88663-4.60785,37.18385-7.974C567.87939,249.19857,595.99793,242.63661,597.84082,241.38264Z" transform="translate(-13 -17.5)"/><path class="cls-3" d="M202.25985,237.72869c0,28.86133-32.58985,37.12988-65.8291,37.12988-14.42969,0-50.2627-2.10742-50.2627-2.10742-2.27051-.16211-4.05371,0-5.5127-1.7832-1.13574-1.46-1.29785-4.05371-1.29785-5.999,0,0-1.13476-29.9961-1.13476-49.12891,0-17.835.81054-45.72363.81054-45.72363,0-2.918.32422-4.86426,2.59473-6.64746a10.07421,10.07421,0,0,1,6.16113-1.6211s29.67188-.64844,43.291-.64844c38.26562,0,62.74805,8.59278,62.74805,27.72559a26.74383,26.74383,0,0,1-6.97168,18.4834,3.82108,3.82108,0,0,0-1.459,2.43262c0,1.459,2.26953,2.10742,2.26953,2.10742S202.25985,218.43475,202.25985,237.72869ZM145.835,198.32928c0-8.10743-11.1875-7.78321-11.1875-7.78321s-3.40527-.16211-4.70215.81055c-.81054.64844-.64843,3.08106-.64843,3.08106v6.64746c0,1.62207.16211,3.24316,1.29687,4.21582s4.05371.81054,4.05371.81054S145.835,206.59783,145.835,198.32928Zm4.21582,34.85937c0-9.89062-14.917-8.75488-14.917-8.75488s-3.56738-.16211-5.02637,1.13476c-.97265.97266-.81054,4.37793-.81054,4.37793v6.32325c0,2.43164.32422,3.72949,1.7832,4.54,1.46.81054,4.54.81054,4.54.81054S150.05086,242.26873,150.05086,233.18865Z" transform="translate(-13 -17.5)"/><path class="cls-3" d="M299.05575,255.0783c0,2.43164,0,13.61914-1.6211,16.05176-1.29687,1.94531-5.6748,1.7832-5.6748,1.7832s-24.96973.97266-39.5625.97266c-16.05176,0-41.02149-1.13477-41.02149-1.13477s-3.24218,0-4.37695-1.7832c-.97363-1.46-.97363-2.75684-.97363-4.54,0,0-1.13477-33.56348-1.13477-52.5332,0-25.78028.97266-45.88575.97266-45.88575s0-2.91894.97363-4.37793c1.13477-1.62109,2.59375-1.94531,4.53906-1.94531,0,0,24.96973-1.13574,41.02149-1.13574,14.59277,0,35.833.97363,35.833.97363s4.21583-.16211,5.67481,1.6211c1.62207,1.94531,1.46,15.56543,1.46,17.51074,0,1.29785.32422,14.75488-.81152,16.376-1.13477,1.62207-3.89063,1.78417-5.83692,1.78417H263.06063s-3.89063,0-4.86426.81055c-.97266.97266-1.13477,7.458.16309,8.75586.81054.81055,4.53906.64844,4.53906.64844H287.0577c1.94531,0,4.21582,0,5.51269,1.62109,1.13477,1.29688,1.6211,11.34961.32422,13.2959-1.13476,1.62109-3.8916,1.94531-5.83691,1.94531H263.06063s-4.21485-.16211-5.02637.64844c-1.13476.97266-1.13476,6.80957,0,7.94531.81152.81055,5.02637.64844,5.02637.64844h29.18555c1.94531,0,4.21582,0,5.51269,1.62109C299.21785,238.53924,299.05575,253.29412,299.05575,255.0783Z" transform="translate(-13 -17.5)"/><path class="cls-3" d="M419.03817,216.81268c0,43.292-32.10352,56.91113-71.99024,56.91113-23.67187,0-36.64355-1.29688-36.64355-1.29688s-4.377,0-5.999-1.29687c-1.62109-1.29785-2.10742-2.75684-2.10742-5.18848,0,0-.81054-29.18555-.81054-48.9668,0-18.96972.81054-50.26269.81054-50.26269,0-1.46.32422-3.24316,1.6211-4.21582,2.1084-1.62207,38.91406-1.94629,39.23828-1.94629C392.28524,160.55,419.03817,177.57537,419.03817,216.81268Zm-47.50684.1621c0-14.43066-16.53808-13.13281-16.53808-13.13281s-2.26954.16211-3.08106,1.13477c-.97266,1.13476-.81055,2.75586-.81055,5.18847v16.376c0,1.7832,0,3.72949,1.29688,4.86426.97363.81055,3.40527.81055,3.40527.81055S371.53133,233.18865,371.53133,216.97478Z" transform="translate(-13 -17.5)"/><path class="cls-3" d="M533.34676,169.468c.64942,3.24316-11.02539,21.24023-18.64551,31.7793-7.62109,10.53906-17.18652,22.53808-19.61914,25.94238-.64843.81055-.64843,12.97168-.64843,21.07812,0,9.08008.64843,20.75391-.81055,22.86231-1.62207,2.26953-15.88965,2.59375-25.94238,2.59375-9.72852,0-23.18653-.16211-24.80762-2.59375-1.6211-2.59473-1.459-13.94434-1.459-23.02442,0-8.917,0-20.916-.64843-22.69921-.64942-1.78321-10.05274-13.458-16.53907-23.18653-8.10644-12.16015-19.94238-29.99512-18.15918-33.23828,1.78321-3.08105,14.75489-5.35059,24.4834-7.13379,9.72852-1.78418,22.69922-3.40527,25.13086-2.1084,1.62207.81055,3.8916,6.81055,6.16211,11.1875,2.918,5.5127,6.16113,12.80957,9.40332,12.80957,3.40528,0,7.29688-7.7832,10.05274-13.62011,2.43261-5.02637,4.70214-10.53907,7.13476-11.67383,1.7832-.81055,14.917,1.29687,24.80762,3.24316C521.51082,163.30682,532.53621,165.57635,533.34676,169.468Z" transform="translate(-13 -17.5)"/><path class="cls-4" d="M288.03056,161.52431s-21.24023-.97363-35.833-.97363c-12.849,0-31.39966.72729-38.2959,1.0177l-2.47033.28552s60.89337,10.91516,83.66845,11.6582c-.126-4.36743-.47082-9.259-1.39441-10.3667C292.24638,161.3622,288.03056,161.52431,288.03056,161.52431Zm55.127-.97363c-.32422,0-37.12988.32422-39.23828,1.94629-1.29687.97265-1.62109,2.75586-1.62109,4.21582,0,0-.06787,2.6217-.16406,6.79345,20.24743-.35791,46.54614-2.656,56.80249.04663,11.08251,2.92054,25.38293-4.79406,34.82543.51563,2.90284,1.63232,4.60059,1.18506,5.56275-.23193C386.49858,164.76918,367.5999,160.55068,343.15751,160.55068Z" transform="translate(-13 -17.5)"/><path class="cls-5" d="M328.36906,92.61473c-4.51891,1.7522-12.88419,6.03127-15.73026,14.35,1.17866-13.30908-1.79481-37.64312-13.36649-52.15487,7.468,8.07671,13.27677,17.45321,16.10353,25.00492C316.98371,84.05014,322.8299,90.94533,328.36906,92.61473Z" transform="translate(-13 -17.5)"/><path class="cls-5" d="M395.51406,151.7192c-.47239-.057-.95909-.10047-1.47458-.117a43.75836,43.75836,0,0,0-4.78453.02831c1.83527-2.00536,5.85388-7.30205,2.85126-12.4048-3.82328-6.48183-13.093-4.44922-14.91811-4.50758-1.81117-.05791-12.10923,1.42581-15.54362,11.5666s-2.74944,13.14735-2.30435,15.36506a9.42795,9.42795,0,0,0,1.53039,3.60535c.34964-.0307.32094-.0037.027.0287l-.01395-.00045c-8.91191,2.87078-41.32133,4.32852-44.88224,4.30051-17.44442-.13719-47.99094-3.93774-55.86533-3.99968s-48.42647-3.70413-48.42647-3.70413l-.27866-.00892c-2.20132-.07039,8.06832-.66251,16.49729-.393,8.415.26909,34.30588,2.25458,39.84178-4.695,5.55014-6.96319,10.50548-19.747,21.81233-18.75784,0,0-10.54662,6.20364-8.77057,13.90307,1.78947,7.71381,6.66941,11.24488,15.29345,11.52065l32.92183,1.05273c1.57435.05035,7.04465-1.7969,3.02629-10.02828s-23.22221-9.98909-24.32282-10.02428-1.04412-1.80461.44663-1.757,14.85433-.041,21.945,5.44357A20.9272,20.9272,0,0,1,338.227,162.467c-.03341,1.04491-.29174,3.017,4.2028,2.46342s11.64877-.98027,13.61543-5.78468.47149-12.56466,9.09812-20.65668,23.46671-7.6872,28.67613-.5056A13.8654,13.8654,0,0,1,395.51406,151.7192Z" transform="translate(-13 -17.5)"/><path class="cls-6" d="M267.49429,38.04818a78.0417,78.0417,0,0,0-11.98016-1.3036,72.87521,72.87521,0,0,0-27.09182,4.16834,63.62535,63.62535,0,0,0-9.38177,4.2326c1.64334-6.90672,6.57047-20.98845,20.0419-25.75976,7.874-2.87221,11.77308-3.12411,15.04643,3.98171C256.6467,28.80346,264.20308,32.81065,267.49429,38.04818Z" transform="translate(-13 -17.5)"/><path class="cls-6" d="M193.39957,128.24151c-3.90412-.0272-10.22006-4.00869-15.8575-10.01856-7.14749-7.63413-14.84259,1.85441-10.35891-16.67655,3.08527-12.746,14.61237-19.51795,21.52772-22.50458a53.11623,53.11623,0,0,0-3.019,10.23784c-4.24591,2.37457-10.11549,6.67769-11.52369,12.769-2.26454,9.75982,4.78487,7.37726,7.30688,10.06589,1.90159,2.0273,4.02864,4.85669,7.09584,6.196A63.75163,63.75163,0,0,0,193.39957,128.24151Z" transform="translate(-13 -17.5)"/><path class="cls-5" d="M255.51413,36.74458a72.87521,72.87521,0,0,0-27.09182,4.16834c1.12657-3.82708,4.22052-9.86463,12.71324-12.89836,12.99332-4.64709,6.44049,5.75661,9.93749,5.86843C252.522,33.92933,254.12594,35.23583,255.51413,36.74458Z" transform="translate(-13 -17.5)"/><path class="cls-5" d="M188.4868,118.37448c-3.06721-1.33933-5.19426-4.16872-7.09585-6.196-2.522-2.68862-9.57142-.30606-7.30688-10.06588,1.4082-6.09137,7.27778-10.39448,11.52369-12.76905A53.30765,53.30765,0,0,0,188.4868,118.37448Z" transform="translate(-13 -17.5)"/><path class="cls-6" d="M360.87057,165.25513a9.42711,9.42711,0,0,1-1.53039-3.60528c-.4451-2.21778-1.13-5.22422,2.30436-15.365s13.73243-11.62457,15.54362-11.56665c1.82512.05836,11.09478-1.97428,14.918,4.50756,3.00267,5.10279-1.01592,10.39946-2.85125,12.40485a43.743,43.743,0,0,1,4.78454-.02831c.51549.01649,1.00223.05994,1.47459.11689a9.80569,9.80569,0,0,1,4.33284,1.44952,9.51916,9.51916,0,0,1,3.21607,3.22684,16.78928,16.78928,0,0,1,2.0731,9.3128c-.21562,6.74319-6.84687,8.2605-11.731,5.73343-8.30024-4.296-13.06688-1.33831-22.38753-1.63635-5.69828-.18222-8.62732-2.3539-10.12-4.52149Z" transform="translate(-13 -17.5)"/><path class="cls-5" d="M405.13605,165.70829c-.21563,6.74314-6.84683,8.26045-11.731,5.73344-8.30031-4.296-13.06691-1.33836-22.38757-1.6364-5.69831-.18222-8.6273-2.35389-10.12-4.52151l-.027-.02869a9.42777,9.42777,0,0,1-1.53038-3.60536,13.99814,13.99814,0,0,1-.34543-4.02763,13.3315,13.3315,0,0,0,.36993,3.26138,9.42755,9.42755,0,0,0,1.53038,3.60527l.027.02878c1.49269,2.16762,4.42168,4.33929,10.12,4.5215,9.32065.298,14.08725-2.65956,22.38756,1.63632,4.81529,2.497,11.34682,1.04619,11.709-5.483C405.14719,165.36,405.14139,165.54111,405.13605,165.70829Z" transform="translate(-13 -17.5)"/><path class="cls-6" d="M408.19122,139.94926a33.93606,33.93606,0,0,1-8.3443,13.21938,9.83018,9.83018,0,0,0-2.07571-.94493,12.38983,12.38983,0,0,0-2.25715-.50451,13.8654,13.8654,0,0,0-1.69462-13.73575c-5.20942-7.1816-20.04949-7.58643-28.67613.5056s-7.13147,15.85226-9.09812,20.65668-9.12088,5.23108-13.61543,5.78468-4.23621-1.41851-4.2028-2.46342a20.9272,20.9272,0,0,0-8.10488-14.3311c-7.09067-5.48458-20.45424-5.3959-21.945-5.44357s-1.54733,1.72175-.44663,1.757,20.30446,1.79289,24.32282,10.02428,2.73506,12.52-4.21782,13.25922c-7.83851.83343-34.692-.66789-34.692-.66789-7.473-1.05315-12.87508-7.2963-13.009-16.42985-.11584-7.90077,9.44784-12.60965,9.44784-12.60965-11.30685-.98917-16.26219,11.79465-21.81233,18.75784-5.5359,6.9496-31.42676,4.96411-39.84178,4.695-8.429-.26953-18.69861.32259-16.49729.393l-2.20132-.07039s-26.96855-8.40745-11.20128-26.968a49.16217,49.16217,0,0,1-4.6287-6.59127,63.75163,63.75163,0,0,1-4.82869-9.93088,52.20231,52.20231,0,0,1,.14-39.26881,65.35665,65.35665,0,0,1,9.27834-15.82541A67.825,67.825,0,0,1,219.0266,45.14508l.01394.00044a63.62535,63.62535,0,0,1,9.38177-4.2326,72.87521,72.87521,0,0,1,27.09182-4.16834,78.0417,78.0417,0,0,1,11.98016,1.3036,63.579,63.579,0,0,1,22.25687,8.34038c.02744.01484.04131.01528.0548.02967.32724.23357.68191.48207,1.078.74576.19054.14552.40949.27808.62791.42449a30.0044,30.0044,0,0,1,2.787,2.25081q2.58128,2.36285,4.97342,4.97058c11.57168,14.51175,14.54515,38.84579,13.36649,52.15487,2.84607-8.31874,11.21135-12.59781,15.73026-14.35a6.32763,6.32763,0,0,0,6.49829-1.28448c29.043-27.24316,67.52428-6.40393,75.04644,26.15061C411.06928,122.34323,411.28569,131.27592,408.19122,139.94926Z" transform="translate(-13 -17.5)"/><path class="cls-6" d="M407.5797,156.45631c-1.72758-.05524-3.24757-.062-4.5167-.06076a9.52009,9.52009,0,0,0-3.21608-3.22691,33.93606,33.93606,0,0,0,8.3443-13.21938,12.70888,12.70888,0,0,1,1.93884,3.4789C411.92142,148.032,413.08285,156.63228,407.5797,156.45631Z" transform="translate(-13 -17.5)"/><path class="cls-5" d="M408.19122,139.94926a34.09379,34.09379,0,0,1-7.24034,13.58938,9.53718,9.53718,0,0,0-.98223-.68685A33.71955,33.71955,0,0,0,408.19122,139.94926Z" transform="translate(-13 -17.5)"/><circle class="cls-7" cx="203.67222" cy="101.70922" r="5.04406"/><circle class="cls-7" cx="233.45285" cy="82.30168" r="5.04406"/><circle class="cls-8" cx="226.17368" cy="108.72144" r="13.47238"/><circle class="cls-9" cx="221.85391" cy="111.57305" r="2.98822"/><circle class="cls-9" cx="230.65217" cy="105.5617" r="2.98822"/><ellipse class="cls-10" cx="224.70123" cy="72.83447" rx="45.91313" ry="25.80743" transform="translate(-9.07378 139.32194) rotate(-38.78741)"/><ellipse class="cls-11" cx="360.26278" cy="94.75757" rx="23.88021" ry="15.61865" transform="translate(-25.16295 69.05141) rotate(-13.47409)"/><path class="cls-6" d="M402.2351,103.385a7.78192,7.78192,0,0,1,.76992-2.57622,6.089,6.089,0,0,1,1.82749-2.1641,6.6478,6.6478,0,0,1,2.43141-1.10009,6.56468,6.56468,0,0,1,2.64239-.1044,5.10206,5.10206,0,0,1,2.483,1.1951,5.19192,5.19192,0,0,1,1.66184,4.79966,3.51526,3.51526,0,0,1-1.53505,2.27058,3.2155,3.2155,0,0,1-2.65179.3678,3.60368,3.60368,0,0,1-1.96279-1.5204,5.56464,5.56464,0,0,1-.80369-2.112,16.37961,16.37961,0,0,1,1.30837-8.131c-.6117,2.61447-1.01156,5.42545-.29413,7.886a3.08809,3.08809,0,0,0,2.129,2.3583,1.50929,1.50929,0,0,0,1.74788-1.45273,2.88245,2.88245,0,0,0-1.24721-2.4211,2.76535,2.76535,0,0,0-2.58871-.10091,2.79907,2.79907,0,0,0-1.80665,1.75219,4.09907,4.09907,0,0,0-.1959,1.3545,27.1562,27.1562,0,0,0-.08323,2.90892S402.13746,104.27824,402.2351,103.385Z" transform="translate(-13 -17.5)"/><path class="cls-12" d="M332.3123,289.31372l6.81259-8.29475a7.20771,7.20771,0,0,0,1.94361,3.8721,2.29458,2.29458,0,0,0,3.423-.14773c1.73108-2.10769.70884-8.07109,4.05927-12.15045,3.46215-4.21538,8.02751-5.47667,13.9297-3.9308l.14572,11.05061a4.01627,4.01627,0,0,0-4.82421,1.16163c-1.9545,2.37972-.79532,8.4537-4.70431,13.21315-4.24414,5.1675-10.34355,6.078-15.375,1.94561A18.69185,18.69185,0,0,1,332.3123,289.31372Z" transform="translate(-13 -17.5)"/><path class="cls-12" d="M401.74246,286.48776v9.59044a12.48592,12.48592,0,0,1-7.83033,2.55143c-6.159,0-10.38322-4.57484-10.38322-11.70257V276.36928c0-2.4627-1.31936-4.13409-3.69479-4.13409-2.28669,0-4.0468,1.75866-4.57484,4.3101v21.20429H362.6781V235.28152h12.58118v30.97074a11.64528,11.64528,0,0,1,9.3257-4.40029c7.215,0,11.52656,5.0156,11.52656,12.14188v10.99854a2.421,2.421,0,0,0,2.63872,2.55143A4.60386,4.60386,0,0,0,401.74246,286.48776Z" transform="translate(-13 -17.5)"/><path class="cls-12" d="M437.59152,280.24153a18.38832,18.38832,0,1,1-18.3881-18.47683A18.43647,18.43647,0,0,1,437.59152,280.24153Zm-10.4705.4393a7.64176,7.64176,0,0,1-2.46271.4393,7.45251,7.45251,0,0,1-7.4783-7.38957,4.69008,4.69008,0,0,1,.08728-1.1448,7.691,7.691,0,0,0-5.54218,7.65577,7.4257,7.4257,0,0,0,7.47831,7.7416A7.89366,7.89366,0,0,0,427.121,280.68083Z" transform="translate(-13 -17.5)"/><path class="cls-12" d="M468.729,249.69107c3.61949,9.35388.92392,19.45437-8.83965,23.23239a12.0957,12.0957,0,0,1-10.69576-.57793l8.41381,21.74386L445.874,298.62963l-19.81246-51.20145,11.73339-4.54024,1.23834,3.20026a12.11746,12.11746,0,0,1,7.58389-7.46409C456.38071,234.84608,465.20447,240.58274,468.729,249.69107Zm-11.56923,4.47673c-1.61946-4.18517-5.72923-6.27276-9.75025-4.71683a7.1225,7.1225,0,0,0-4.5982,6.40081l2.63522,6.81021a7.12152,7.12152,0,0,0,7.70955,1.63987C457.17705,262.74592,458.81067,258.43436,457.15972,254.1678Z" transform="translate(-13 -17.5)"/><path class="cls-5" d="M344.09721,89.074a20.90556,20.90556,0,0,1,7.462-4.82718,24.07548,24.07548,0,0,1,8.89233-1.72311,25.11686,25.11686,0,0,1,4.53253.43021c1.4361.2612,2.86823.58261,4.28314.98443a31.98031,31.98031,0,0,1,4.178,1.48758,12.00268,12.00268,0,0,1,3.76917,2.40619,24.63731,24.63731,0,0,0-4.23627-.71661l-4.231-.41858-4.23077-.38925c-.71869-.08222-1.37824-.116-2.0481-.1554-.66607-.07791-1.34076-.04407-2.01117-.0596a41.0332,41.0332,0,0,0-8.103.83633A73.09975,73.09975,0,0,0,344.09721,89.074Z" transform="translate(-13 -17.5)"/><path class="cls-13" d="M374.51785,86.68437a13.06062,13.06062,0,0,0-25.66718-4.84925,26.85266,26.85266,0,0,0-.15815,5.18835s4.95046-2.83356,13.74114-2.65914S374.51785,86.68437,374.51785,86.68437Z" transform="translate(-13 -17.5)"/><path class="cls-14" d="M375.93511,87.29026l-2.82744-1.2576a10.6294,10.6294,0,0,0-1.87419-8.28834,11.56022,11.56022,0,0,0-20.90918,4.36914,14.2334,14.2334,0,0,0-.14941,3.581,2.97973,2.97973,0,0,0,.11217.60647l-2.86485,1.27914a7.81309,7.81309,0,0,1-.22193-1.31823c.001-.08593-.00977-.21777-.01953-.38671a17.09573,17.09573,0,0,1,.19628-4.31836,14.56,14.56,0,0,1,17.00977-11.6045A14.869,14.869,0,0,1,375.93511,87.29026Z" transform="translate(-13 -17.5)"/></g></g></svg>